<svg xmlns="http://www.w3.org/2000/svg" width="513.403" height="535.866" viewBox="0 0 513.403 535.866">
  <g id="Group_1627" data-name="Group 1627" transform="translate(-77.87 -163.613)">
    <g id="Group_1599" data-name="Group 1599" transform="translate(77.87 163.613)">
      <path id="Path_2023" data-name="Path 2023" d="M403,273.527,161.243,414.965a3.7,3.7,0,0,1-5.056-1.331L.505,147a3.707,3.707,0,0,1,1.323-5.063L243.586.5a3.7,3.7,0,0,1,5.056,1.331L404.324,268.464A3.707,3.707,0,0,1,403,273.527Z" transform="translate(128.387 0) rotate(18)" fill="#fff"/>
      <path id="Path_2024" data-name="Path 2024" d="M403,273.527,161.243,414.965a3.7,3.7,0,0,1-5.056-1.331L.505,147a3.707,3.707,0,0,1,1.323-5.063L243.586.5a3.7,3.7,0,0,1,5.056,1.331L404.324,268.464A3.707,3.707,0,0,1,403,273.527ZM2.574,143.22a2.224,2.224,0,0,0-.794,3.038L157.464,412.887a2.219,2.219,0,0,0,3.034.8L402.255,272.248a2.224,2.224,0,0,0,.794-3.038L247.366,2.581a2.219,2.219,0,0,0-3.034-.8Z" transform="translate(128.387 0) rotate(18)" fill="#3f3d56"/>
      <path id="Path_2025" data-name="Path 2025" d="M100.679,66.921l-60.03,35.085a3.7,3.7,0,0,1-5.059-1.327L.5,40.649A3.7,3.7,0,0,1,1.831,35.59L61.861.5A3.7,3.7,0,0,1,66.92,1.831l35.085,60.03a3.7,3.7,0,0,1-1.327,5.059ZM2.578,36.867a2.221,2.221,0,0,0-.8,3.036l35.085,60.03a2.222,2.222,0,0,0,3.036.8l60.03-35.085a2.222,2.222,0,0,0,.8-3.036L65.643,2.578a2.222,2.222,0,0,0-3.036-.8Z" transform="translate(151.205 115.561) rotate(18)" fill="#f2f2f2"/>
      <path id="Path_2026" data-name="Path 2026" d="M100.123,66.231l-60.03,35.085a3.332,3.332,0,0,1-4.553-1.194L.454,40.093a3.332,3.332,0,0,1,1.194-4.553L61.678.454a3.332,3.332,0,0,1,4.553,1.194l35.085,60.03A3.332,3.332,0,0,1,100.123,66.231Z" transform="translate(133.844 128.973) rotate(18)" fill="#d1d1d1"/>
      <path id="Path_2027" data-name="Path 2027" d="M192.761,6.2,5.009,115.938A3.329,3.329,0,0,1,1.65,110.19L189.4.455A3.329,3.329,0,0,1,192.762,6.2Z" transform="translate(178.868 159.22) rotate(18)" fill="#ccc"/>
      <path id="Path_2028" data-name="Path 2028" d="M147.42,6.2,5.009,89.437A3.329,3.329,0,1,1,1.65,83.69L144.061.455A3.329,3.329,0,1,1,147.42,6.2Z" transform="translate(175.595 206.869) rotate(18)" fill="#ccc"/>
      <path id="Path_2029" data-name="Path 2029" d="M88.029,6.2,5.009,54.725A3.329,3.329,0,0,1,1.65,48.978L84.67.455A3.329,3.329,0,1,1,88.029,6.2Z" transform="translate(259.729 109.245) rotate(18)" fill="#ccc"/>
      <path id="Path_2030" data-name="Path 2030" d="M67.31,6.2,5.009,42.616A3.329,3.329,0,0,1,1.65,36.868L63.951.455A3.329,3.329,0,1,1,67.31,6.2Z" transform="translate(260.884 143.2) rotate(18)" fill="#ccc"/>
      <path id="Path_2031" data-name="Path 2031" d="M192.762,6.2,5.009,115.938A3.329,3.329,0,0,1,1.65,110.19L189.4.455A3.329,3.329,0,1,1,192.762,6.2Z" transform="translate(188.624 204.096) rotate(18)" fill="#ccc"/>
      <path id="Path_2032" data-name="Path 2032" d="M147.42,6.2,5.009,89.437A3.329,3.329,0,0,1,1.65,83.69L144.061.455A3.329,3.329,0,0,1,147.42,6.2Z" transform="translate(185.354 251.738) rotate(18)" fill="#ccc"/>
      <path id="Path_2033" data-name="Path 2033" d="M192.761,6.2,5.009,115.937A3.329,3.329,0,0,1,1.65,110.19L189.4.455A3.329,3.329,0,0,1,192.762,6.2Z" transform="translate(198.381 248.971) rotate(18)" fill="#ccc"/>
      <path id="Path_2034" data-name="Path 2034" d="M192.762,6.2,5.009,115.938A3.329,3.329,0,0,1,1.65,110.19L189.4.455A3.329,3.329,0,1,1,192.762,6.2Z" transform="translate(203.258 271.409) rotate(18)" fill="#ccc"/>
      <path id="Path_2035" data-name="Path 2035" d="M4.374,49.842a72.5,72.5,0,0,0,7.02-9.818c1.85-3.123,3.665-6.462,4.073-10.125a10,10,0,0,0-2.994-8.547,7.037,7.037,0,0,0-8.256-.938A8.4,8.4,0,0,0,0,27.912a11.092,11.092,0,0,0,4.738,8.4c5.55,4.021,14.216,3.811,20.131.751,6.662-3.446,10.1-12.463,4.87-18.635-1.089-1.284-2.9.151-2.628,1.536A7.464,7.464,0,0,0,41.9,18.135L39.551,19.51a17.965,17.965,0,0,0,17.87-1.917,16.665,16.665,0,0,0,3.344-3.232c1.152-1.5,3.086-2.473,4.653-3.556L76.709,3C78.369,1.857,76.79-.877,75.116.28L64.891,7.344c-1.7,1.177-3.419,2.34-5.112,3.532-1.211.852-1.955,2.228-3.057,3.24A14.8,14.8,0,0,1,41.1,16.76a1.6,1.6,0,0,0-2.353,1.375,4.321,4.321,0,1,1-8.581,1.017l-2.628,1.536c3.377,3.982,1.128,10.089-2.762,12.76A17.911,17.911,0,0,1,9.094,35.1a9.253,9.253,0,0,1-5.448-5A5.514,5.514,0,0,1,4.9,23.788a3.957,3.957,0,0,1,5.5-.059,7.077,7.077,0,0,1,1.875,6.384c-.506,3.162-2.254,6.078-3.88,8.779a67.447,67.447,0,0,1-6.28,8.745c-1.3,1.541.944,3.761,2.26,2.2Z" transform="translate(314.285 342.652) rotate(18)" fill="#47c0fc"/>
      <path id="Path_2036" data-name="Path 2036" d="M616.459,547.26a7.445,7.445,0,0,1,.747.9l34.962-.855,4.079-7.453,12.053,4.685-5.938,13.9a5.642,5.642,0,0,1-5.864,3.384L617,557.045a7.4,7.4,0,1,1-.537-9.785Z" transform="translate(-312.723 -236.007)" fill="#e9b180"/>
      <path id="Path_2037" data-name="Path 2037" d="M521.9,699.791H510.4l-5.469-44.342H521.9Z" transform="translate(-104.27 -175.982)" fill="#e9b180"/>
      <path id="Path_2038" data-name="Path 2038" d="M748.937,807.1H711.87v-.469A14.428,14.428,0,0,1,726.3,792.2h22.641Z" transform="translate(-328.378 -272.144)" fill="#2f2e41"/>
      <path id="Path_2039" data-name="Path 2039" d="M401.012,698.971l-10.571-4.517,12.389-42.925,15.6,6.666Z" transform="translate(-87.679 -175.417)" fill="#e9b180"/>
      <path id="Path_2040" data-name="Path 2040" d="M622.089,805.6,588,791.042l.184-.431a14.428,14.428,0,0,1,18.935-7.6h0l20.819,8.894Z" transform="translate(-310.417 -270.652)" fill="#2f2e41"/>
      <path id="Path_2041" data-name="Path 2041" d="M459.328,470.122l-.832,13.471,24.3,2.6,25.425,2.721-7.484-20.455Z" transform="translate(-97.564 -149.248)" fill="#ffb7b7"/>
      <path id="Path_2042" data-name="Path 2042" d="M683.013,562.58l-9.44-65.808,16.362-5.362,4.806-6.591,23.386,1.384,3.433,7.691,12.47,5.892-1.916,35.59,1.4,29.772Z" transform="translate(-322.844 -228.092)" fill="#2f2e41"/>
      <path id="Path_2043" data-name="Path 2043" d="M674.859,546.98l-16.643-6.659.071-.3c.071-.3,7.155-29.9,8.1-34.655.98-4.956,4.559-6.326,4.711-6.382l.111-.041,6.586,2,2.893,22.728Z" transform="translate(-320.587 -230.135)" fill="#2f2e41"/>
      <path id="Path_2044" data-name="Path 2044" d="M636.066,755.78l-22.154-4.544,35.408-97.7,12.118-33.325s7.686-26.72,11.159-37.061l2.1-13.874,49.609,5.491s13.856,20.349,9.646,53.516l1.9,124.662L713.7,754.076,695.143,628.348l-32.568,68.923s-10.265,29.412-17.609,35.787Z" transform="translate(-314.242 -240.02)" fill="#242157"/>
      <path id="Path_2045" data-name="Path 2045" d="M718.435,574.381a7.389,7.389,0,0,1,1.167.064l23.144-26.22-2.692-8.059,11.63-5.653,6.153,13.8a5.642,5.642,0,0,1-1.506,6.6L725.975,580.64a7.4,7.4,0,1,1-7.54-6.259Z" transform="translate(-328.298 -235.221)" fill="#e9b180"/>
      <path id="Path_2046" data-name="Path 2046" d="M744.265,546.135l-9.655-22.709,3.765-15.818,4.057-5.126a2.336,2.336,0,0,1,1.878.018c1.5.6,2.77,2.448,3.787,5.486l9.048,25.772Z" transform="translate(-331.663 -230.617)" fill="#2f2e41"/>
      <path id="Path_2047" data-name="Path 2047" d="M687.367,468.242v-17.12a22.942,22.942,0,1,1,45.884,0v17.121a3.085,3.085,0,0,1-3.082,3.081h-39.72A3.085,3.085,0,0,1,687.367,468.242Z" transform="translate(-324.832 -220.009)" fill="#2f2e41"/>
      <circle id="Ellipse_394" data-name="Ellipse 394" cx="16.82" cy="16.82" r="16.82" transform="translate(363.951 217.282)" fill="#e9b180"/>
      <path id="Path_2048" data-name="Path 2048" d="M681.026,453.529a18.168,18.168,0,0,1,18.148-18.148H702.6a18.168,18.168,0,0,1,18.148,18.148v.342H713.51l-2.468-6.911-.494,6.911h-3.74l-1.245-3.487-.249,3.487H681.026Z" transform="translate(-323.908 -221.051)" fill="#2f2e41"/>
      <path id="Path_2049" data-name="Path 2049" d="M706.63,475.566a3.036,3.036,0,0,1-.241-3.223c3.629-6.9,8.709-19.655,1.966-27.52l-.484-.565h19.577V473.65l-17.785,3.138a3.138,3.138,0,0,1-.545.048,3.069,3.069,0,0,1-2.487-1.27Z" transform="translate(-327.519 -222.315)" fill="#2f2e41"/>
      <circle id="Ellipse_395" data-name="Ellipse 395" cx="19.693" cy="19.693" r="19.693" transform="translate(193.341 200.344)" fill="#9f616a"/>
      <path id="Path_2058" data-name="Path 2058" d="M603.37,556.16a8.451,8.451,0,0,1-12.689-2.63l-29.654,4.746s-3.727-.15-6.057-2.116-3.263-5.748-3.263-5.748l-5.674-17.448,11.207-1.135,6.667,13.231,30.719-3.333a8.5,8.5,0,0,1,8.743,14.433Z" transform="translate(-304.343 -234.856)" fill="#9f616a"/>
      <path id="Path_2061" data-name="Path 2061" d="M492.1,454.487l16.345.587c1,.036,3.7-10.717,4.054-12.947a6.088,6.088,0,0,1,6.351-4.925c1.224.115,4.309-2.17,7.493-4.877,6.045-5.139,5.73-14.79-.91-19.132q-.272-.178-.534-.325c-4.189-2.344-9.089-3.132-13.888-3.192-4.351-.054-8.826.493-12.659,2.553-6.872,3.692-10.53,11.761-10.851,19.555s2.177,15.416,5.013,22.684" transform="translate(-295.84 -217.359)" fill="#2f2e41"/>
      <path id="Path_2062" data-name="Path 2062" d="M660.994,810.384H227.583c-.322,0-.583-.383-.583-.856s.261-.856.583-.856H661.226c.322,0,.583.383.583.856A.934.934,0,0,1,660.994,810.384Z" transform="translate(-148.591 -274.518)" fill="#cbcbcb"/>
      <path id="Path_2080" data-name="Path 2080" d="M777.822,540.46l-1.974,101.317,8.66,1.341,18.72-103.7Z" transform="translate(-605.539 -118.218)" fill="#9e616a"/>
      <path id="Path_2081" data-name="Path 2081" d="M758.4,545.74,744.849,646.166h-8.763l-2.629-105.342Z" transform="translate(-529.987 -118.603)" fill="#9e616a"/>
      <path id="Path_2083" data-name="Path 2083" d="M851.887,791.816H883.36v-.4a12.25,12.25,0,0,0-12.25-12.25H851.886Z" transform="translate(-647.492 -257.662)" fill="#242157"/>
      <path id="Path_2085" data-name="Path 2085" d="M848.6,572.338a9.24,9.24,0,0,0,2.54-13.939l10.744-83.472-20.077.843-4.247,81.785A9.29,9.29,0,0,0,848.6,572.338Z" transform="translate(-681.9 -180.306)" fill="#9e616a"/>
      <path id="Path_2087" data-name="Path 2087" d="M865.81,439.226l-18.941-2.87s-5.186,30.414-5.142,37.359l22.861,3.647Z" transform="translate(-683.419 -172.121)" fill="#47c0fc"/>
      <path id="Path_2088" data-name="Path 2088" d="M947.819,435.788l9.052-1.941s3.491,11.081,9.253,37.176L942.6,479.234Z" transform="translate(-705.11 -171.583)" fill="#47c0fc"/>
      <path id="Path_2084" data-name="Path 2084" d="M904.385,785.235l31.1,4.816.061-.393a12.25,12.25,0,0,0-10.231-13.98h0l-19-2.941Z" transform="translate(-737.883 -255.898)" fill="#242157"/>
      <path id="Path_2082" data-name="Path 2082" d="M727.682,459.652l-4.291,18.677h0l3.492,22.588.8,24.838,28.963.174.64-30.285,3.9,30.285h29.49l5.458-60.7L788.3,450.861Z" transform="translate(-557.615 -94.048)" fill="#242157"/>
      <path id="Path_2086" data-name="Path 2086" d="M880.535,412.042l-2.307,4.275s-19.9,3.877-29.956,14.83l13.5,27.557-12.5,79.808,73.69-4.913,2.615-61.446,11.088-42.977s-19.223-13.185-27.517-11.8l-2.9-5.336Z" transform="translate(-684.851 -166.877)" fill="#47c0fc"/>
      <path id="Path_2215" data-name="Path 2215" d="M0,0,43.379.2,39.72,6.257,2.484,3.168Z" transform="translate(411.07 209.073) rotate(-3)" fill="#a3d300"/>
      <path id="Path_2216" data-name="Path 2216" d="M0,.661,40.963,0l1.259,9.233L1.593,2.721Z" transform="translate(402.856 202.094) rotate(-48)" fill="#a3d300"/>
      <path id="Path_2217" data-name="Path 2217" d="M0,8.44l37.327.783L47.58,0,1.943,6Z" transform="translate(390.478 197.758) rotate(-79)" fill="#a3d300"/>
    </g>
  </g>
</svg>
