<svg xmlns="http://www.w3.org/2000/svg" width="483.792" height="323.144" viewBox="0 0 483.792 323.144">
  <g id="Group_1625" data-name="Group 1625" transform="translate(-199.911 -382.079)">
    <g id="Group_1622" data-name="Group 1622" transform="translate(199.911 384.761)">
      <g id="Group_1618" data-name="Group 1618">
        <path id="Path_1816" data-name="Path 1816" d="M748.619,655.281h-7.263L737.9,627.268h10.719Z" transform="translate(-303.436 -342.666)" fill="#9e616a"/>
        <path id="Path_1817" data-name="Path 1817" d="M932.424,786.063H909.006v-.3a9.116,9.116,0,0,1,9.114-9.115h14.3Z" transform="translate(-485.388 -466.408)" fill="#2f2e41"/>
        <path id="Path_1818" data-name="Path 1818" d="M701.62,655.281h-7.263L690.9,627.268h10.719Z" transform="translate(-284.279 -342.666)" fill="#9e616a"/>
        <path id="Path_1819" data-name="Path 1819" d="M885.424,786.063H862.006v-.3a9.116,9.116,0,0,1,9.114-9.115h14.3Z" transform="translate(-466.231 -466.408)" fill="#2f2e41"/>
        <path id="Path_1495" data-name="Path 1495" d="M368.748,610.358V406.807a5,5,0,0,1,5.225-4.727H397.29a5,5,0,0,1,5.225,4.727h0V610.889Z" transform="translate(-263.138 -291.731)" fill="#fff" stroke="#242157" stroke-width="1"/>
        <path id="Path_1496" data-name="Path 1496" d="M498.748,665.209V486.3a5.225,5.225,0,0,1,5.225-5.225h23.317a5.225,5.225,0,0,1,5.225,5.225h0V664.824Z" transform="translate(-316.579 -345.932)" fill="#fff" stroke="#242157" stroke-width="1"/>
        <circle id="Ellipse_304" data-name="Ellipse 304" cx="16.587" cy="16.587" r="16.587" transform="translate(405.989 38.975)" fill="#47c0fc"/>
        <path id="Path_1507" data-name="Path 1507" d="M883.68,559.292c6.208.748,22.084-4.916,22.945,3.7,8.171,24.055,7.929,116.262,7.929,116.262l-12.44.593s-9.941-73.264-14.642-88.938c-2.359,19.051-1.946,91.9-1.946,91.9l-11.256.593s-10.1-62.034-10.154-80.242c-1.227-13.337,1.782-33.1.494-45.994a49.3,49.3,0,0,0,19.07,2.127Z" transform="translate(-466.969 -376.945)" fill="#242157"/>
        <path id="Path_1513" data-name="Path 1513" d="M758.748,607.981V348.656c0-3.326,2.339-6.022,5.225-6.022h23.317c2.885,0,5.225,2.7,5.225,6.022v260Z" transform="translate(-423.463 -289.501)" fill="#47c0fc"/>
        <path id="Path_1508" data-name="Path 1508" d="M843.425,412.652a77.4,77.4,0,0,0-9.07-14.318,22.693,22.693,0,0,1-2.014-2.749c-1.274-2.21-1.653-4.8-2.458-7.221-2.251-6.777-7.867-12.221-9.236-19.229-.5-2.547-4.7,4.856-3.6,8.015,1.973,5.717,2.228,11.771,4.739,17.292s5.462,10.817,7.63,16.463c1.233,3.2,2.216,6.516,4.022,9.478s4.627,5.444,8.033,5.888a19.814,19.814,0,0,1,.966-6.327C843.182,417.61,844.5,414.862,843.425,412.652Z" transform="translate(-447.323 -298.076)" fill="#9e616a"/>
        <path id="Path_1509" data-name="Path 1509" d="M919.942,418.141a32.731,32.731,0,0,1,1.925-12.31A12.757,12.757,0,0,0,923,401.18a11.4,11.4,0,0,0-1.434-4.212,107.978,107.978,0,0,1-5.332-14.5l-2.962-9.271c-.966-.708,4.674-.954,5.877.711,3.933,5.462,6.913,11.735,10.029,17.7a29.964,29.964,0,0,1,2.026,4.437,24.411,24.411,0,0,1,1.066,7.666,106.405,106.405,0,0,1-1.3,14.5c-.421,3.015-.972,6.3-3.252,8.294A46.955,46.955,0,0,0,919.942,418.141Z" transform="translate(-487.082 -299.733)" fill="#9e616a"/>
        <circle id="Ellipse_307" data-name="Ellipse 307" cx="12.292" cy="12.292" r="12.292" transform="translate(404.905 88.995)" fill="#9e616a"/>
        <path id="Path_1512" data-name="Path 1512" d="M881.209,395.236a2.134,2.134,0,0,1,.45-2.206c.307-.242.715-.332,1.044-.563a4.494,4.494,0,0,0,1.125-1.424,6.111,6.111,0,0,1,7.647-1.941c2.031,1.063,3.258,3.192,5.065,4.626.917.743,1.981,1.294,2.9,2.037a11.933,11.933,0,0,1,3.765,6.089,34.545,34.545,0,0,1,1.044,7.183,6.464,6.464,0,0,1-.084,2.183,6.1,6.1,0,0,1-.827,1.688,18.8,18.8,0,0,1-7.371,6.82,11.388,11.388,0,0,1-9.823.169,1.69,1.69,0,0,1-.754-.6,2.165,2.165,0,0,1-.118-1.3,8.894,8.894,0,0,0-.979-4.98c-.563-1.125-1.407-2.093-1.857-3.258a11.346,11.346,0,0,1-.529-4.04C881.855,402.174,882.1,398.646,881.209,395.236Z" transform="translate(-474.004 -306.182)" fill="#2d293d"/>
        <path id="Path_1514" data-name="Path 1514" d="M238.747,722.436V578.248c0-1.849,2.339-3.348,5.225-3.348h23.317c2.885,0,5.225,1.5,5.225,3.348V722.812Z" transform="translate(-209.523 -403.654)" fill="#fff" stroke="#242157" stroke-width="1"/>
        <path id="Path_944" data-name="Path 944" d="M672.623,793.086H190.005a.593.593,0,0,1,0-1.185H672.619a.593.593,0,0,1,0,1.185Z" transform="translate(-189.416 -472.624)" fill="#e6e6e6"/>
        <path id="Path_1515" data-name="Path 1515" d="M628.747,519.431V287.485a5.307,5.307,0,0,1,5.225-5.386h23.317a5.308,5.308,0,0,1,5.225,5.386V520.036Z" transform="translate(-370.021 -200.878)" fill="#fff" stroke="#242157" stroke-width="1"/>
        <circle id="Ellipse_311" data-name="Ellipse 311" cx="5.332" cy="5.332" r="5.332" transform="translate(364.158 67.119)" fill="#a0616a"/>
        <circle id="Ellipse_312" data-name="Ellipse 312" cx="5.332" cy="5.332" r="5.332" transform="translate(422.784 64.771)" fill="#a0616a"/>
        <path id="Path_1821" data-name="Path 1821" d="M896.483,455.794c.52-.476,4.761-25.28,4.737-25.839-.065-3.056-9.389-6.546-11.255-5.332-1.761,1.146-4.826,14.291-6.8,16.685l-2.087-3.652H864.491l-1.005,1.867c-2.177-1.311-4.135-2.52-4.833-2.92a3.144,3.144,0,0,0-.776-.382,12.034,12.034,0,0,1-4.739-2.228c-1.362-1.049-7.686-12.03-9.38-11.74-1.914.32-8.368,5.9-8.294,11.256.813-.018,11.382,21.117,11.531,21.905.812,3.329,3.491,51.882,4.356,54.145,3.984-.385.839-1.072,4.7,0,4.153,1.155,8.537-.095,12.82-.557a49.206,49.206,0,0,1,5.367-.237c6.517.03,15.817.391,22.126,2.008.036-4.135-3.6-13.08-4.941-16.984a11.415,11.415,0,0,1,.018-3.519C891.608,488.844,895.077,457.372,896.483,455.794Z" transform="translate(-455.411 -320.456)" fill="#d1d1d1"/>
        <path id="Path_1925" data-name="Path 1925" d="M0,89.961,78.269,28.035l76.2,26.286L229.9,0" transform="translate(44.981 17.592)" fill="none" stroke="#242157" stroke-width="1"/>
        <circle id="Ellipse_300" data-name="Ellipse 300" cx="16.587" cy="16.587" r="16.587" transform="translate(29.52 90.161)" fill="#fff" stroke="#242157" stroke-width="1"/>
        <circle id="Ellipse_301" data-name="Ellipse 301" cx="16.587" cy="16.587" r="16.587" transform="translate(105.906 29.211)" fill="#fff" stroke="#242157" stroke-width="1"/>
        <circle id="Ellipse_302" data-name="Ellipse 302" cx="16.587" cy="16.587" r="16.587" transform="translate(182.464 54.045)" fill="#fff" stroke="#242157" stroke-width="1"/>
        <circle id="Ellipse_303" data-name="Ellipse 303" cx="16.587" cy="16.587" r="16.587" transform="translate(259.023 0)" fill="#fff" stroke="#242157" stroke-width="1"/>
      </g>
    </g>
    <g id="icon_charge" transform="matrix(0.966, 0.259, -0.259, 0.966, 569.728, 382.079)">
      <path id="Icon_material-attach-money" data-name="Icon material-attach-money" d="M18.918,18.106c-3.909-1.016-5.167-2.067-5.167-3.7,0-1.877,1.739-3.186,4.65-3.186,3.066,0,4.2,1.464,4.306,3.617h3.806a6.865,6.865,0,0,0-5.528-6.562V4.5H15.818V8.22c-3.341.723-6.028,2.893-6.028,6.217,0,3.978,3.289,5.959,8.094,7.113,4.306,1.033,5.167,2.549,5.167,4.151,0,1.188-.844,3.083-4.65,3.083-3.548,0-4.943-1.584-5.132-3.617H9.48c.207,3.772,3.031,5.89,6.338,6.6V35.5h5.167V31.8c3.358-.637,6.028-2.583,6.028-6.114C27.012,20.792,22.827,19.122,18.918,18.106Z" transform="translate(-9.48 -4.5)" fill="#a3d300"/>
    </g>
  </g>
</svg>
